<svg width="26" height="15" viewBox="0 0 26 15" fill="none" xmlns="http://www.w3.org/2000/svg">
<g opacity="0.8">
<path d="M12.6597 13.0725C9.50559 15.8653 5.00811 15.5039 2.31748 12.7583C-0.436002 9.94982 -0.542056 5.60945 1.93254 2.65958C4.50141 -0.404207 9.36025 -1.04446 12.6636 1.92113C14.4666 0.377451 16.5405 -0.274585 18.8973 0.106424C20.8298 0.416731 22.401 1.37907 23.599 2.92275C25.9086 5.90405 25.6572 10.1384 22.9234 12.8447C20.2917 15.4528 15.8374 15.8849 12.6597 13.0725ZM13.5317 2.79313C15.7235 5.94333 15.7235 9.06996 13.5317 12.2044C15.7746 14.2391 19.6396 14.3923 22.1025 11.902C24.5692 9.41169 24.5142 5.36985 21.9885 2.97381C19.4275 0.546352 15.6332 0.860587 13.5317 2.79313Z" fill="#212121"/>
</g>
</svg>
