<svg width="29" height="28" viewBox="0 0 29 28" fill="none" xmlns="http://www.w3.org/2000/svg">
<circle cx="14.643" cy="13.9306" r="12.3143" stroke="#E8E8E8" stroke-width="2.8"/>
<path d="M2.29787 13.9306C1.54171 13.9306 0.921649 14.5451 0.997012 15.2975C1.22033 17.527 1.98746 19.6753 3.24001 21.5499C4.74695 23.8052 6.88883 25.563 9.39479 26.601C11.9007 27.639 14.6582 27.9105 17.3185 27.3814C19.9788 26.8522 22.4225 25.5461 24.3405 23.6281C26.2585 21.7101 27.5646 19.2664 28.0938 16.6061C28.623 13.9458 28.3514 11.1883 27.3134 8.68238C26.2754 6.17642 24.5176 4.03455 22.2623 2.5276C20.3877 1.27506 18.2394 0.507924 16.0099 0.284608C15.2575 0.209245 14.643 0.829308 14.643 1.58546C14.643 2.34161 15.2584 2.94579 16.0086 3.03987C17.6956 3.25141 19.317 3.8529 20.741 4.80439C22.546 6.01045 23.9528 7.72467 24.7835 9.73027C25.6143 11.7359 25.8316 13.9428 25.4081 16.0719C24.9846 18.2011 23.9393 20.1568 22.4042 21.6918C20.8692 23.2268 18.9135 24.2722 16.7843 24.6957C14.6552 25.1192 12.4483 24.9019 10.4427 24.0711C8.43707 23.2404 6.72285 21.8336 5.51679 20.0286C4.56531 18.6046 3.96381 16.9832 3.75228 15.2962C3.6582 14.546 3.05402 13.9306 2.29787 13.9306Z" fill="#EF3124"/>
<circle cx="14.643" cy="13.9305" r="2.675" stroke="#EE3124" stroke-width="2.65"/>
</svg>
