<svg width="28" height="28" viewBox="0 0 28 28" fill="none" xmlns="http://www.w3.org/2000/svg">
<circle cx="13.7143" cy="13.9306" r="12.3143" stroke="#E8E8E8" stroke-width="2.8"/>
<path d="M26.0594 13.9306C26.8156 13.9306 27.4357 13.3161 27.3603 12.5637C27.2269 11.2316 26.8988 9.92375 26.3846 8.68236C25.6954 7.01847 24.6852 5.50662 23.4118 4.23313C22.1383 2.95964 20.6264 1.94945 18.9625 1.26025C17.7211 0.746047 16.4133 0.418026 15.0812 0.284594C14.3288 0.20923 13.7143 0.829291 13.7143 1.58544C13.7143 2.3416 14.3296 2.94578 15.0799 3.03986C16.0521 3.16176 17.0056 3.41356 17.9146 3.79008C19.2463 4.34167 20.4563 5.15016 21.4755 6.16938C22.4947 7.1886 23.3032 8.39858 23.8548 9.73025C24.2313 10.6393 24.4831 11.5928 24.605 12.565C24.6991 13.3153 25.3033 13.9306 26.0594 13.9306Z" fill="#EF3124"/>
<circle cx="13.7143" cy="13.9305" r="2.675" stroke="#EE3124" stroke-width="2.65"/>
</svg>
