<svg width="28" height="28" viewBox="0 0 28 28" fill="none" xmlns="http://www.w3.org/2000/svg">
<circle cx="13.7143" cy="13.9306" r="12.3143" stroke="#E8E8E8" stroke-width="2.8"/>
<path d="M13.7143 26.2757C13.7143 27.0319 14.3288 27.652 15.0812 27.5766C16.4133 27.4432 17.7211 27.1151 18.9625 26.6009C20.6264 25.9117 22.1383 24.9015 23.4118 23.6281C24.6853 22.3546 25.6954 20.8427 26.3847 19.1788C27.0739 17.5149 27.4286 15.7316 27.4286 13.9306C27.4286 12.1296 27.0739 10.3463 26.3847 8.68236C25.6954 7.01847 24.6853 5.50662 23.4118 4.23313C22.1383 2.95964 20.6264 1.94945 18.9625 1.26025C17.7211 0.746047 16.4133 0.418026 15.0812 0.284594C14.3288 0.20923 13.7143 0.829291 13.7143 1.58544C13.7143 2.3416 14.3296 2.94578 15.0799 3.03986C16.0521 3.16176 17.0056 3.41356 17.9146 3.79008C19.2463 4.34167 20.4563 5.15016 21.4755 6.16938C22.4947 7.1886 23.3032 8.39858 23.8548 9.73025C24.4064 11.0619 24.6903 12.4892 24.6903 13.9306C24.6903 15.372 24.4064 16.7993 23.8548 18.1309C23.3032 19.4626 22.4947 20.6726 21.4755 21.6918C20.4563 22.711 19.2463 23.5195 17.9146 24.0711C17.0056 24.4476 16.0521 24.6994 15.0799 24.8213C14.3296 24.9154 13.7143 25.5196 13.7143 26.2757Z" fill="#EF3124"/>
<circle cx="13.7143" cy="13.9305" r="2.675" stroke="#EE3124" stroke-width="2.65"/>
</svg>
