<svg width="121" height="20" viewBox="0 0 121 20" fill="none" xmlns="http://www.w3.org/2000/svg">
<path d="M15.9871 18.725C15.9871 12.6867 15.9871 6.6883 15.9871 0.693848C10.9636 0.693848 5.98377 0.693848 1 0.693848C1 6.7261 1 12.7106 1 18.711C1.81969 18.711 2.61351 18.711 3.46105 18.711C3.46105 13.4129 3.46105 8.16254 3.46105 2.90222C6.84922 2.90222 10.1817 2.90222 13.5738 2.90222C13.5738 8.19039 13.5738 13.4388 13.5738 18.723C14.3975 18.7249 15.1615 18.725 15.9871 18.725Z" fill="#EE3124" stroke="#EE3124" stroke-width="0.4"/>
<path d="M59.3357 16.4748L52.8458 1.90941C52.5176 1.1713 51.7834 0.695801 50.9757 0.695801C50.1679 0.695801 49.4338 1.1713 49.1055 1.90941L42.6157 16.4748H40.4033V18.7249H61.546V16.4748H59.3357ZM50.9757 3.40355L56.6637 16.4748H45.2876L50.9757 3.40355Z" fill="#EE3124" stroke="#EE3124" stroke-width="0.4"/>
<path d="M100.875 18.7249L93.7785 1.91936C93.4641 1.17727 92.738 0.695801 91.9322 0.695801C91.1264 0.695801 90.4002 1.17727 90.0859 1.91936L82.9893 18.7249H85.6612L91.9322 3.5468L98.2032 18.7249H100.875Z" fill="#EE3124" stroke="#EE3124" stroke-width="0.4"/>
<path d="M117.581 0.693848H117.537L106.782 15.289V0.693848H104.362V18.5718V18.725H106.782L117.581 4.07207V18.725H120V0.789344V0.693848H117.581Z" fill="#EE3124" stroke="#EE3124" stroke-width="0.4"/>
<path d="M72.181 16.8229C70.4485 16.8228 68.7757 16.1902 67.4767 15.044C66.1777 13.8977 65.3418 12.3166 65.1261 10.5977H81.6392C81.667 10.3052 81.681 10.0008 81.681 9.71034C81.6808 9.2442 81.6462 8.77871 81.5775 8.31767C81.2439 6.06492 80.1114 4.0072 78.3868 2.51997C76.6621 1.03274 74.4603 0.215125 72.183 0.21631C69.6655 0.21631 67.2512 1.21636 65.4711 2.99647C63.691 4.77657 62.6909 7.19091 62.6909 9.70835C62.6909 12.2258 63.691 14.6401 65.4711 16.4202C67.2512 18.2003 69.6655 19.2004 72.183 19.2004C74.0564 19.1989 75.8874 18.6428 77.4452 17.6022C79.0031 16.5616 80.218 15.0832 80.9369 13.3532H78.2868C77.6571 14.4111 76.7632 15.2872 75.6928 15.8955C74.6223 16.5038 73.4122 16.8234 72.181 16.8229ZM72.181 2.59778C73.8257 2.59768 75.4196 3.16759 76.6914 4.21049C77.9632 5.25338 78.8342 6.7048 79.1563 8.31767H65.2077C65.5313 6.70607 66.4029 5.25624 67.6745 4.2146C68.9461 3.17295 70.5392 2.59778 72.183 2.59778H72.181Z" fill="#EE3124" stroke="#EE3124" stroke-width="0.4"/>
<path d="M29.7958 0.216309C24.5533 0.216309 20.3037 4.46594 20.3037 9.70835C20.3037 14.9508 24.5533 19.2004 29.7958 19.2004C35.0382 19.2004 39.2878 14.9508 39.2878 9.70835C39.2878 4.46594 35.0382 0.216309 29.7958 0.216309ZM29.7958 16.8209C25.8684 16.8209 22.6832 13.6357 22.6832 9.70835C22.6832 5.78102 25.8684 2.59579 29.7958 2.59579C33.7231 2.59579 36.9083 5.78102 36.9083 9.70835C36.9083 13.6357 33.7231 16.8209 29.7958 16.8209Z" fill="#EE3124" stroke="#EE3124" stroke-width="0.4"/>
<path d="M29.7939 1.49155C29.7939 2.07846 30.2217 2.5838 30.8046 2.66736C33.9242 3.11102 36.3912 5.57804 36.8349 8.69762C36.9184 9.28056 37.4238 9.7083 38.0107 9.7083C38.7289 9.7083 39.292 9.07563 39.1905 8.36338C38.5996 4.19731 35.303 0.900657 31.1369 0.309767C30.4266 0.21029 29.7939 0.773327 29.7939 1.49155Z" fill="black" stroke="black" stroke-width="0.4"/>
</svg>
