<svg width="18" height="18" viewBox="0 0 18 18" fill="none" xmlns="http://www.w3.org/2000/svg">
<rect width="18" height="17.9677" rx="5" fill="#EE3124"/>
<path d="M5.68882 9.06128C7.05718 9.06128 8.11573 8.01564 8.11573 6.64728C8.11573 5.27891 7.05718 4.23328 5.68882 4.23328C4.32045 4.23328 3.26191 5.27891 3.26191 6.64728C3.26191 8.01564 4.32045 9.06128 5.68882 9.06128ZM4.92718 13.5536H6.46336L13.0728 4.38819H11.5366L4.92718 13.5536ZM5.68882 7.83491C5.01755 7.83491 4.56573 7.31855 4.56573 6.64728C4.56573 5.98891 5.01755 5.47255 5.68882 5.47255C6.36009 5.47255 6.82482 5.98891 6.82482 6.64728C6.82482 7.31855 6.36009 7.83491 5.68882 7.83491ZM12.3112 13.7344C13.6795 13.7344 14.7381 12.6887 14.7381 11.3204C14.7381 9.952 13.6795 8.90637 12.3112 8.90637C10.9428 8.90637 9.88427 9.952 9.88427 11.3204C9.88427 12.6887 10.9428 13.7344 12.3112 13.7344ZM12.3112 12.4951C11.6528 12.4951 11.1881 11.9787 11.1881 11.3204C11.1881 10.6491 11.6528 10.1327 12.3112 10.1327C12.9825 10.1327 13.4472 10.6491 13.4472 11.3204C13.4472 11.9787 12.9825 12.4951 12.3112 12.4951Z" fill="white"/>
</svg>
