<?xml version="1.0" standalone="no"?>
<!DOCTYPE svg PUBLIC "-//W3C//DTD SVG 20010904//EN"
 "http://www.w3.org/TR/2001/REC-SVG-20010904/DTD/svg10.dtd">
<svg version="1.0" xmlns="http://www.w3.org/2000/svg"
 width="700.000000pt" height="700.000000pt" viewBox="0 0 700.000000 700.000000"
 preserveAspectRatio="xMidYMid meet">
<metadata>
Created by potrace 1.11, written by Peter Selinger 2001-2013
</metadata>
<g transform="translate(0.000000,700.000000) scale(0.100000,-0.100000)"
fill="#000000" stroke="none">
<path d="M3278 6995 c-1 -1 -41 -5 -88 -9 -87 -7 -105 -9 -225 -27 -116 -18
-123 -19 -192 -35 -154 -34 -203 -47 -313 -81 -157 -48 -338 -121 -505 -204
-184 -91 -226 -115 -380 -217 -665 -440 -1158 -1086 -1405 -1842 -28 -87 -75
-256 -85 -311 -3 -13 -12 -58 -20 -99 -8 -41 -17 -89 -19 -105 -3 -17 -7 -46
-11 -66 -6 -40 -10 -74 -22 -199 -15 -162 -8 -591 12 -711 2 -13 6 -46 9 -74
9 -78 22 -152 51 -285 21 -99 98 -365 115 -400 4 -8 25 -60 45 -115 63 -169
213 -461 314 -615 271 -411 605 -747 1008 -1016 77 -52 145 -94 149 -94 4 0
15 -6 23 -14 30 -25 248 -135 387 -194 176 -75 453 -166 607 -198 101 -21 216
-41 277 -49 25 -3 56 -7 69 -10 135 -26 700 -26 839 0 16 3 104 15 147 20 246
32 661 162 945 298 413 197 832 514 1112 841 34 39 64 73 68 76 14 11 141 181
202 270 114 167 231 375 302 540 16 36 36 83 46 105 54 123 147 418 176 560
16 77 54 301 60 350 4 33 9 76 11 95 8 70 10 517 3 595 -13 133 -21 202 -26
227 -2 13 -7 46 -10 73 -4 28 -8 53 -10 56 -2 4 -6 24 -10 45 -11 73 -73 309
-109 419 -106 315 -227 562 -411 840 -299 454 -699 828 -1178 1104 -93 54
-368 191 -383 191 -5 0 -27 8 -49 19 -98 47 -408 141 -579 176 -44 9 -89 19
-100 21 -11 2 -38 6 -60 9 -22 3 -51 7 -65 10 -13 2 -54 7 -90 11 -36 3 -78 8
-95 11 -33 5 -531 13 -537 8z m552 -339 c68 -9 236 -34 270 -41 14 -2 50 -10
80 -16 30 -6 69 -14 85 -19 17 -5 57 -16 90 -25 752 -205 1428 -716 1849
-1398 69 -112 177 -320 216 -417 12 -30 29 -69 36 -86 62 -141 156 -500 179
-681 2 -12 6 -34 9 -50 14 -76 21 -199 21 -413 0 -200 -10 -402 -20 -420 -1
-3 -6 -32 -9 -65 -4 -33 -11 -76 -16 -95 -5 -19 -11 -51 -14 -70 -21 -134
-106 -409 -181 -585 -175 -409 -387 -722 -699 -1030 -432 -427 -927 -698
-1536 -840 -66 -16 -164 -34 -205 -40 -27 -3 -63 -8 -80 -10 -93 -15 -142 -17
-370 -20 -226 -3 -300 1 -445 20 -25 4 -63 9 -85 11 -56 7 -255 50 -345 75
-144 40 -402 133 -468 168 -9 6 -60 31 -112 57 -311 153 -574 344 -835 609
-400 403 -674 885 -816 1433 -30 117 -65 300 -75 387 -3 28 -8 64 -11 80 -12
69 -10 553 3 665 75 645 317 1209 729 1706 87 105 320 331 432 421 439 350
930 572 1453 658 124 20 151 24 227 31 37 4 70 8 72 10 6 6 515 -3 571 -10z"/>
<path d="M2605 4814 c-11 -12 -47 -62 -80 -110 -33 -49 -63 -93 -68 -99 -4 -5
-97 -138 -207 -295 -109 -157 -208 -298 -220 -315 -17 -24 -546 -781 -711
-1017 l-40 -58 -1 -141 c0 -77 3 -143 7 -147 3 -4 304 -7 668 -7 l662 0 1
-268 c1 -147 4 -270 7 -273 5 -5 89 -7 265 -5 l62 1 0 273 0 273 138 -1 c75
-1 143 1 150 3 9 3 12 42 12 148 l0 144 -32 0 c-18 1 -86 1 -150 1 l-118 1 -2
956 -3 957 -160 0 c-151 0 -161 -1 -180 -21z m11 -1181 l-1 -708 -492 -2
c-459 -1 -492 0 -484 15 6 9 45 67 88 129 91 130 87 126 387 558 415 598 478
690 483 703 3 6 8 12 12 12 4 0 7 -318 7 -707z"/>
<path d="M4926 4809 c-11 -15 -57 -79 -101 -144 -44 -65 -84 -123 -90 -129 -5
-6 -39 -54 -75 -106 -35 -52 -68 -99 -73 -105 -4 -5 -48 -68 -98 -140 -50 -71
-97 -139 -105 -150 -8 -11 -171 -245 -363 -520 -192 -275 -364 -520 -382 -545
l-33 -45 -1 -140 c-1 -77 0 -144 2 -150 2 -7 230 -10 661 -9 361 0 662 -3 667
-7 7 -5 10 -102 10 -269 -1 -144 2 -263 6 -266 6 -4 153 -6 274 -5 l50 1 -1
257 c-1 142 0 265 2 273 3 13 25 15 131 15 190 -1 171 -18 171 151 l0 144 -61
1 c-34 0 -102 1 -152 2 l-90 2 -1 945 c-1 520 -2 950 -3 955 -1 6 -62 10 -162
10 l-161 0 -22 -26z m19 -1184 l0 -703 -496 0 -497 0 251 361 c138 199 274
394 302 434 27 40 95 138 150 218 55 81 105 152 110 158 6 7 23 32 40 57 16
25 32 47 35 50 3 3 25 35 50 72 24 37 47 65 49 62 3 -3 6 -322 6 -709z"/>
</g>
</svg>
