<svg width="15" height="15" viewBox="0 0 15 15" fill="none" xmlns="http://www.w3.org/2000/svg">
<path fill-rule="evenodd" clip-rule="evenodd" d="M7.5 1C3.91015 1 1 3.91015 1 7.5C1 11.0899 3.91015 14 7.5 14C11.0899 14 14 11.0899 14 7.5C14 3.91015 11.0899 1 7.5 1ZM0 7.5C0 3.35786 3.35786 0 7.5 0C11.6421 0 15 3.35786 15 7.5C15 11.6421 11.6421 15 7.5 15C3.35786 15 0 11.6421 0 7.5Z" fill="#CBCBC7"/>
<path fill-rule="evenodd" clip-rule="evenodd" d="M4.35348 4.32645C4.54874 4.13118 4.86532 4.13118 5.06058 4.32645L10.7175 9.98335C10.9127 10.1786 10.9127 10.4952 10.7175 10.6905C10.5222 10.8857 10.2056 10.8857 10.0104 10.6905L4.35348 5.03355C4.15822 4.83829 4.15822 4.52171 4.35348 4.32645Z" fill="#CBCBC7"/>
<path fill-rule="evenodd" clip-rule="evenodd" d="M10.6465 4.32645C10.4513 4.13118 10.1347 4.13118 9.93942 4.32645L4.28256 9.9833C4.0873 10.1786 4.0873 10.4951 4.28256 10.6904C4.47782 10.8857 4.7944 10.8857 4.98967 10.6904L10.6465 5.03355C10.8418 4.83829 10.8418 4.52171 10.6465 4.32645Z" fill="#CBCBC7"/>
</svg>
