<svg width="68" height="20" viewBox="0 0 68 20" fill="none" xmlns="http://www.w3.org/2000/svg">
<rect width="68" height="20" rx="4" fill="black"/>
<g clip-path="url(#clip0_141454_163)">
<path d="M15.9392 6H14.6044V12.7689H15.9392V6Z" fill="white"/>
<path d="M13.0711 6.37876H11.7363V13.1475H13.0711V6.37876Z" fill="white"/>
<path d="M10.203 6.80162H8.86814V13.5716H10.203V6.80162Z" fill="white"/>
<path d="M7.33482 7.22917H6L6.00001 14H7.33482L7.33482 7.22917Z" fill="white"/>
<path d="M51.194 9.60628L49.0448 7.21667H47.7883V12.7494H49.1002V9.21943L51.0624 11.3108H51.3048L53.2333 9.21943V12.7494H54.5451V7.21667H53.2887L51.194 9.60628Z" fill="white"/>
<path d="M60.7951 7.21667L57.5435 10.8128V7.21667H56.2317V12.7494H57.4335L60.6851 9.15335V12.7494H61.997V7.21667H60.7951Z" fill="white"/>
<path d="M40.7223 9.24119C40.7223 10.1221 41.204 10.816 41.9434 11.1069L40.5569 12.7494H42.1626L43.4239 11.2552H44.7887V12.7494H46.1006V7.21667H42.7607C41.5155 7.21667 40.7223 8.06855 40.7223 9.24119ZM44.7895 8.43525V10.0713H43.004C42.4082 10.0713 42.0887 9.73926 42.0887 9.25248C42.0887 8.76569 42.4195 8.43364 43.004 8.43364L44.7895 8.43525Z" fill="white"/>
<path d="M34.6261 8.32323C34.5458 10.2261 34.1444 11.4543 33.3584 11.4543H33.1617V12.7825L33.3712 12.7938C34.9472 12.8816 35.8183 11.4986 35.9612 8.47797H38.0342V12.7494H39.3437V7.21667H34.6702L34.6261 8.32323Z" fill="white"/>
<path d="M29.6878 7.13937C27.9135 7.13937 26.6369 8.36762 26.6369 9.98273C26.6369 11.6534 28.0259 12.8382 29.6878 12.8382C31.4187 12.8382 32.7635 11.5874 32.7635 9.98273C32.7635 8.3781 31.4187 7.13937 29.6878 7.13937ZM29.6878 11.51C28.685 11.51 28.0018 10.8572 28.0018 9.98273C28.0018 9.08652 28.6858 8.45144 29.6878 8.45144C30.6898 8.45144 31.3963 9.11554 31.3963 9.98273C31.3963 10.8499 30.6801 11.51 29.6878 11.51Z" fill="white"/>
<path d="M25.2456 7.22711H20.6156L20.5714 8.33367C20.5056 9.92781 20.0897 11.4438 19.3037 11.4655L18.94 11.4768V14L20.2631 13.9973V12.7502H24.8594V13.9973H26.1938V11.4655H25.2456V7.22711ZM23.9338 11.4655H21.1342C21.6079 10.7466 21.8616 9.70618 21.9057 8.48921H23.9338V11.4655Z" fill="white"/>
</g>
<defs>
<clipPath id="clip0_141454_163">
<rect width="56" height="8" fill="white" transform="translate(6 6)"/>
</clipPath>
</defs>
</svg>
