<svg width="15" height="15" viewBox="0 0 15 15" fill="none" xmlns="http://www.w3.org/2000/svg">
<path fill-rule="evenodd" clip-rule="evenodd" d="M6.22943 1C3.3413 1 1 3.3413 1 6.22943C1 9.11756 3.3413 11.4589 6.22943 11.4589C9.11756 11.4589 11.4589 9.11756 11.4589 6.22943C11.4589 3.3413 9.11756 1 6.22943 1ZM0 6.22943C0 2.78901 2.78901 0 6.22943 0C9.66985 0 12.4589 2.78901 12.4589 6.22943C12.4589 9.66985 9.66985 12.4589 6.22943 12.4589C2.78901 12.4589 0 9.66985 0 6.22943Z" fill="#989690"/>
<path fill-rule="evenodd" clip-rule="evenodd" d="M14.1686 15L9.84766 10.679L10.5548 9.97192L14.8757 14.2929L14.1686 15Z" fill="#989690"/>
</svg>
