<?xml version="1.0" encoding="UTF-8"?> <svg xmlns="http://www.w3.org/2000/svg" id="Layer_1" data-name="Layer 1" viewBox="0 0 283.46 46.68"> <defs> <style>.cls-1{fill:#ff0001;}</style> </defs> <path class="cls-1" d="M0,45.49H6.56V7.11h24V45.52H37V1.16H0Z"></path> <path class="cls-1" d="M124,4.28a5.27,5.27,0,0,0-9.62,0L98.72,39.48H93.25v6.05h51.92V39.48H139.7Zm-18.17,35.2L119.21,8.76l13.37,30.72Z"></path> <path class="cls-1" d="M216.23,1.16a5.16,5.16,0,0,0-4.75,3.15L194.25,45.12l-.17.41h7.12l15-36.39,15,36.21.07.18h7.13L221,4.31A5.14,5.14,0,0,0,216.23,1.16Z"></path> <polygon class="cls-1" points="277.04 1.16 251.37 36 251.37 1.16 244.91 1.16 244.91 45.53 251.22 45.53 277 10.54 277 45.53 283.46 45.53 283.46 1.16 277.04 1.16"></polygon> <path class="cls-1" d="M184.75,5.66A23.37,23.37,0,0,0,169.5,0h0A23.34,23.34,0,0,0,153,39.85a23.33,23.33,0,0,0,38-7.55l.17-.4h-7l-.09.14a16.93,16.93,0,0,1-14.56,8.28h0a17,17,0,0,1-16.8-14.53h40l0-.26c.07-.71.11-1.46.11-2.19a23.06,23.06,0,0,0-.26-3.42A23.35,23.35,0,0,0,184.75,5.66Zm-26,4.57a17,17,0,0,1,27.33,9.44H152.92A17,17,0,0,1,158.73,10.23Z"></path> <path class="cls-1" d="M69,0A23.34,23.34,0,1,0,92.34,23.34,23.37,23.37,0,0,0,69,0ZM86,23.34a17,17,0,1,1-17-17A17,17,0,0,1,86,23.34Z"></path> <path d="M92.1,20A23.42,23.42,0,0,0,72.3.23,3.15,3.15,0,0,0,69.8,1a3.19,3.19,0,0,0,1.61,5.56A17,17,0,0,1,85.8,20.93a3.19,3.19,0,0,0,5.56,1.6A3.13,3.13,0,0,0,92.1,20Z"></path> </svg> 