<svg width="41" height="15" viewBox="0 0 41 15" fill="none" xmlns="http://www.w3.org/2000/svg">
<g opacity="0.8">
<path d="M40.1588 13.6661C39.1797 13.6661 38.2402 13.6701 37.3008 13.6582C37.2413 13.6582 37.1501 13.5472 37.1343 13.4719C37.0312 13.0081 36.94 12.5443 36.8568 12.0805C36.833 11.9338 36.7735 11.8863 36.6229 11.8863C35.3623 11.8902 34.1018 11.8902 32.8452 11.8863C32.6945 11.8863 32.639 11.9536 32.5954 12.0765C32.425 12.5482 32.2545 13.02 32.0682 13.4838C32.0365 13.563 31.9255 13.6621 31.8502 13.6621C30.8354 13.674 29.8245 13.6661 28.8097 13.6621C28.7939 13.6621 28.778 13.6503 28.7305 13.6304C28.7622 13.5512 28.7979 13.4679 28.8296 13.3886C30.5619 9.40871 32.2981 5.42483 34.0225 1.44095C34.1057 1.25068 34.1969 1.18329 34.403 1.18329C35.3901 1.19122 36.3732 1.19122 37.3602 1.18329C37.5545 1.17933 37.6298 1.23879 37.6694 1.42906C38.482 5.4169 39.3026 9.40078 40.1192 13.3886C40.143 13.4679 40.147 13.5472 40.1588 13.6661ZM35.4297 4.88176C35.4139 4.87779 35.398 4.87383 35.3822 4.86986C34.7915 6.39603 34.1969 7.92219 33.5944 9.4761C34.522 9.4761 35.4099 9.4761 36.3216 9.4761C36.0204 7.93012 35.7231 6.40792 35.4297 4.88176Z" fill="#212121"/>
<path d="M20.0983 10.7763C20.7444 10.9626 21.3668 11.1807 22.001 11.3115C22.7978 11.474 23.6144 11.5017 24.4151 11.2956C24.9067 11.1688 25.3467 10.9349 25.4339 10.3878C25.5211 9.8408 25.2159 9.43647 24.7719 9.15898C24.2843 8.85772 23.773 8.59609 23.2656 8.32257C22.6353 7.98166 22.0327 7.60904 21.5769 7.04218C20.5819 5.79746 20.4709 3.24857 22.3974 1.92854C23.1942 1.3815 24.0861 1.12384 25.0256 1.00491C26.4289 0.822567 27.7886 1.04852 29.1126 1.52024C29.1522 1.5361 29.1918 1.55592 29.2592 1.58367C29.0769 2.47954 28.8945 3.36749 28.7082 4.29112C28.5695 4.2158 28.4506 4.15634 28.3356 4.09292C27.3049 3.50624 26.2188 3.32785 25.0732 3.68858C24.653 3.82336 24.3359 4.0731 24.2368 4.53689C24.1733 4.8342 24.2407 5.0879 24.4548 5.2861C24.6252 5.44466 24.8155 5.59926 25.0177 5.71818C25.4656 5.97981 25.9373 6.20576 26.3813 6.47532C26.8253 6.74091 27.2772 7.01046 27.6776 7.33552C28.7479 8.20365 29.061 9.53557 28.5378 10.816C28.0898 11.91 27.2534 12.6434 26.2505 13.1944C24.1456 14.3519 21.9693 14.2568 19.7732 13.4798C19.575 13.4085 19.5195 13.3173 19.575 13.0953C19.7693 12.3104 19.9318 11.5176 20.0983 10.7763Z" fill="#212121"/>
<path d="M8.30941 10.0431C8.55518 9.32562 8.78906 8.64777 9.01502 7.96992C9.74837 5.79761 10.4857 3.62531 11.2151 1.44904C11.2785 1.2548 11.3697 1.18345 11.5798 1.18741C12.5668 1.1993 13.5539 1.19138 14.537 1.19138C14.6281 1.19138 14.7153 1.19138 14.8461 1.19138C14.6876 1.57985 14.5449 1.93265 14.4022 2.28546C12.9038 5.99185 11.4014 9.69825 9.91089 13.4046C9.82765 13.6108 9.73251 13.6782 9.51449 13.6742C8.48383 13.6623 7.44921 13.6663 6.41856 13.6702C6.23225 13.6702 6.13314 13.6346 6.07765 13.4245C5.24123 10.2175 4.38896 7.01458 3.54461 3.81162C3.53272 3.75612 3.52876 3.6927 3.55254 3.61342C5.87944 5.18318 7.61174 7.19296 8.30941 10.0431Z" fill="#212121"/>
<path d="M14.1875 13.6661C14.8455 9.48801 15.4956 5.3535 16.1497 1.20312C17.2676 1.20312 18.3696 1.20312 19.5073 1.20312C19.4359 1.66692 19.3685 2.11486 19.2972 2.55883C18.9761 4.56465 18.655 6.57046 18.3339 8.57628C18.0723 10.2055 17.8186 11.8347 17.549 13.46C17.5371 13.5353 17.4261 13.6542 17.3587 13.6582C16.3202 13.6701 15.2816 13.6661 14.1875 13.6661Z" fill="#212121"/>
<path d="M0.00792812 1.21509C0.0594609 1.21509 0.110994 1.21509 0.158562 1.21509C1.7204 1.21509 3.27828 1.21509 4.84012 1.21509C5.58139 1.21509 6.16808 1.50446 6.56845 2.13079C6.66755 2.28935 6.74286 2.47169 6.77854 2.65404C7.10756 4.26741 7.42865 5.88475 7.74973 7.49812C7.76163 7.54965 7.75766 7.60515 7.75766 7.60515C7.43657 7.06604 7.12738 6.47143 6.74286 5.92835C5.53383 4.22777 3.86892 3.07423 2.03753 2.14664C1.42706 1.84141 0.788848 1.5996 0.162526 1.32608C0.10703 1.3023 0.0554968 1.27851 0 1.25473C0.00396406 1.23887 0.00792812 1.22698 0.00792812 1.21509Z" fill="#212121"/>
<path d="M35.4311 4.88177C35.7284 6.40793 36.0217 7.93013 36.323 9.47611C35.4112 9.47611 34.5273 9.47611 33.5957 9.47611C34.1982 7.92616 34.7889 6.39604 35.3835 4.86987C35.3994 4.87384 35.4152 4.8778 35.4311 4.88177Z" fill="white"/>
</g>
</svg>
